# xmcd
#
# Track frame offsets: 
#        150
#        8807
#        30818
#        50504
#        67976
#        89783
#        109518
#        116303
#        136176
#        158143
#        179498
#        198944
#
# Disc length: 2894 seconds
#
# Revision: 0
# Processed by: cddbd v1.5.2PL0 Copyright (c) Steve Scherf et al.
# Submitted via: ExactAudioCopy v1.0b3
#
DISCID=910b4c0c
DTITLE=Levi Stephens - This Way
DYEAR=2009
DGENRE=Pop
TTITLE0=Oh Love (Intro)
TTITLE1=I Love You (That's Why)
TTITLE2=Sorry For the Pain
TTITLE3=This Way
TTITLE4=Overcast
TTITLE5=Start Over
TTITLE6=Because of You (Interlude)
TTITLE7=Daylight
TTITLE8=Nashville
TTITLE9=That's What I Don't Know
TTITLE10=Belong
TTITLE11=When I'm Rich
EXTD=
EXTT0=
EXTT1=
EXTT2=
EXTT3=
EXTT4=
EXTT5=
EXTT6=
EXTT7=
EXTT8=
EXTT9=
EXTT10=
EXTT11=
PLAYORDER=
